<?xml version="1.0" standalone="no"?>
<!DOCTYPE svg PUBLIC "-//W3C//DTD SVG 20010904//EN"
 "http://www.w3.org/TR/2001/REC-SVG-20010904/DTD/svg10.dtd">
<svg version="1.0" xmlns="http://www.w3.org/2000/svg"
 width="1300.000000pt" height="1300.000000pt" viewBox="0 0 1300.000000 1300.000000"
 preserveAspectRatio="xMidYMid meet">
<metadata>
Created by potrace 1.14, written by Peter Selinger 2001-2017
</metadata>
<g transform="translate(0.000000,1300.000000) scale(0.100000,-0.100000)"
fill="#000000" stroke="none">
<path d="M787 10572 c-10 -2 -17 -13 -18 -25 0 -28 0 -7567 0 -7624 l1 -43
910 0 910 0 0 1594 c0 1266 3 1595 13 1598 6 2 596 4 1310 4 1146 -1 1298 1
1301 14 3 8 4 385 4 838 l-1 822 -1314 0 -1313 0 0 569 c0 446 3 570 13 573 6
2 723 4 1592 4 l1580 -1 2 -2980 c1 -1639 2 -2993 2 -3008 l1 -28 1493 4 c820
2 1506 6 1522 9 17 4 71 9 121 13 51 3 102 8 115 9 13 2 51 7 84 10 33 4 85
11 115 16 30 5 73 11 95 15 22 3 78 12 125 21 47 9 96 18 110 20 14 3 39 9 55
14 17 5 57 14 90 20 224 45 648 196 905 324 565 282 1050 709 1355 1195 6 9
22 34 36 56 78 121 214 392 274 546 67 171 151 435 168 529 3 14 10 43 15 65
6 22 13 54 15 70 3 17 12 68 21 115 8 47 18 105 21 130 3 25 8 63 11 85 12 92
14 115 21 215 15 204 8 755 -12 871 -2 13 -7 51 -10 84 -3 33 -8 69 -11 80 -3
11 -6 36 -8 56 -2 19 -6 44 -9 55 -3 10 -8 35 -11 54 -4 29 -20 108 -41 200
-41 186 -123 434 -213 645 -247 580 -685 1104 -1218 1458 -71 47 -147 95 -169
108 -256 144 -387 205 -635 296 -69 25 -141 51 -160 58 -151 58 -659 171 -849
190 -20 2 -52 6 -71 9 -45 7 -106 14 -200 21 -41 4 -93 8 -115 10 -22 3 -128
7 -235 11 -194 6 -7761 12 -7793 6z m7948 -1725 c17 -3 62 -8 100 -12 39 -4
77 -9 85 -10 8 -1 40 -6 70 -10 30 -4 64 -9 75 -11 11 -3 36 -7 55 -10 107
-17 443 -115 464 -135 6 -5 16 -9 24 -9 24 0 247 -116 330 -171 310 -208 522
-498 645 -884 26 -83 42 -142 51 -185 3 -14 7 -36 10 -50 3 -13 8 -42 12 -64
3 -22 7 -43 9 -46 2 -3 6 -34 10 -69 4 -34 8 -71 10 -82 7 -36 18 -263 18
-379 0 -152 -13 -359 -28 -449 -2 -13 -7 -45 -11 -70 -14 -101 -57 -272 -95
-384 -93 -276 -221 -484 -409 -665 -67 -66 -210 -182 -224 -182 -3 0 -24 -13
-48 -29 -115 -76 -298 -157 -490 -215 -65 -20 -128 -38 -140 -40 -13 -2 -43
-9 -68 -15 -105 -24 -282 -49 -475 -67 -33 -4 -297 -8 -587 -11 l-528 -5 0
2137 0 2137 553 -5 c303 -3 566 -7 582 -10z"/>
</g>
</svg>
